<svg xmlns="http://www.w3.org/2000/svg" width="640" height="800" viewBox="0 0 640 800"><defs><radialGradient id="node"><stop stop-color="#edffda"/><stop offset=".4" stop-color="#b9ec9f"/><stop offset="1" stop-color="#3f8070"/></radialGradient><radialGradient id="node2"><stop stop-color="#cef9ef"/><stop offset=".5" stop-color="#5fb3a3"/><stop offset="1" stop-color="#214f52"/></radialGradient><linearGradient id="rung"><stop stop-color="#98d797"/><stop offset=".5" stop-color="#457b73"/><stop offset="1" stop-color="#b8eee1"/></linearGradient><filter id="glow"><feGaussianBlur stdDeviation="38"/></filter></defs><ellipse cx="320" cy="390" rx="210" ry="280" fill="#498978" opacity=".15" filter="url(#glow)"/><g transform="translate(320 390) rotate(28) translate(-320 -390)"><path d="M320.0 60L370.1 88 M320.0 60L269.9 88" fill="none" stroke="#7cbb9e" stroke-width="7" stroke-linecap="round" opacity=".7"/><path d="M320.0 60H320.0" stroke="url(#rung)" stroke-width="5" opacity=".8" stroke-linecap="round"/><circle cx="320.0" cy="60" r="14.0" fill="url(#node)" opacity="0.96"/><circle cx="320.0" cy="60" r="6.0" fill="url(#node2)" opacity="0.56"/><path d="M370.1 88L413.0 116 M269.9 88L227.0 116" fill="none" stroke="#7cbb9e" stroke-width="7" stroke-linecap="round" opacity=".7"/><path d="M370.1 88H269.9" stroke="url(#rung)" stroke-width="5" opacity=".8" stroke-linecap="round"/><circle cx="370.1" cy="88" r="13.7" fill="url(#node)" opacity="0.95"/><circle cx="269.9" cy="88" r="6.3" fill="url(#node2)" opacity="0.57"/><path d="M413.0 116L442.7 144 M227.0 116L197.3 144" fill="none" stroke="#7cbb9e" stroke-width="7" stroke-linecap="round" opacity=".7"/><path d="M413.0 116H227.0" stroke="url(#rung)" stroke-width="5" opacity=".8" stroke-linecap="round"/><circle cx="413.0" cy="116" r="12.9" fill="url(#node)" opacity="0.90"/><circle cx="227.0" cy="116" r="7.1" fill="url(#node2)" opacity="0.62"/><path d="M442.7 144L454.8 172 M197.3 144L185.2 172" fill="none" stroke="#7cbb9e" stroke-width="7" stroke-linecap="round" opacity=".7"/><path d="M442.7 144H197.3" stroke="url(#rung)" stroke-width="5" opacity=".8" stroke-linecap="round"/><circle cx="442.7" cy="144" r="11.7" fill="url(#node)" opacity="0.84"/><circle cx="197.3" cy="144" r="8.3" fill="url(#node2)" opacity="0.68"/><path d="M454.8 172L447.8 200 M185.2 172L192.2 200" fill="none" stroke="#7cbb9e" stroke-width="7" stroke-linecap="round" opacity=".7"/><path d="M454.8 172H185.2" stroke="url(#rung)" stroke-width="5" opacity=".8" stroke-linecap="round"/><circle cx="454.8" cy="172" r="10.2" fill="url(#node)" opacity="0.77"/><circle cx="185.2" cy="172" r="9.8" fill="url(#node2)" opacity="0.75"/><path d="M447.8 200L422.4 228 M192.2 200L217.6 228" fill="none" stroke="#7cbb9e" stroke-width="7" stroke-linecap="round" opacity=".7"/><path d="M447.8 200H192.2" stroke="url(#rung)" stroke-width="5" opacity=".8" stroke-linecap="round"/><circle cx="447.8" cy="200" r="8.7" fill="url(#node)" opacity="0.70"/><circle cx="192.2" cy="200" r="11.3" fill="url(#node2)" opacity="0.82"/><path d="M422.4 228L382.5 256 M217.6 228L257.5 256" fill="none" stroke="#7cbb9e" stroke-width="7" stroke-linecap="round" opacity=".7"/><path d="M422.4 228H217.6" stroke="url(#rung)" stroke-width="5" opacity=".8" stroke-linecap="round"/><circle cx="422.4" cy="228" r="7.4" fill="url(#node)" opacity="0.63"/><circle cx="217.6" cy="228" r="12.6" fill="url(#node2)" opacity="0.89"/><path d="M382.5 256L333.7 284 M257.5 256L306.3 284" fill="none" stroke="#7cbb9e" stroke-width="7" stroke-linecap="round" opacity=".7"/><path d="M382.5 256H257.5" stroke="url(#rung)" stroke-width="5" opacity=".8" stroke-linecap="round"/><circle cx="382.5" cy="256" r="6.5" fill="url(#node)" opacity="0.58"/><circle cx="257.5" cy="256" r="13.5" fill="url(#node2)" opacity="0.94"/><path d="M333.7 284L282.9 312 M306.3 284L357.1 312" fill="none" stroke="#7cbb9e" stroke-width="7" stroke-linecap="round" opacity=".7"/><path d="M333.7 284H306.3" stroke="url(#rung)" stroke-width="5" opacity=".8" stroke-linecap="round"/><circle cx="333.7" cy="284" r="6.0" fill="url(#node)" opacity="0.56"/><circle cx="306.3" cy="284" r="14.0" fill="url(#node2)" opacity="0.96"/><path d="M282.9 312L237.4 340 M357.1 312L402.6 340" fill="none" stroke="#7cbb9e" stroke-width="7" stroke-linecap="round" opacity=".7"/><path d="M282.9 312H357.1" stroke="url(#rung)" stroke-width="5" opacity=".8" stroke-linecap="round"/><circle cx="282.9" cy="312" r="6.2" fill="url(#node)" opacity="0.57"/><circle cx="357.1" cy="312" r="13.8" fill="url(#node2)" opacity="0.95"/><path d="M237.4 340L203.7 368 M402.6 340L436.3 368" fill="none" stroke="#7cbb9e" stroke-width="7" stroke-linecap="round" opacity=".7"/><path d="M237.4 340H402.6" stroke="url(#rung)" stroke-width="5" opacity=".8" stroke-linecap="round"/><circle cx="237.4" cy="340" r="6.8" fill="url(#node)" opacity="0.60"/><circle cx="402.6" cy="340" r="13.2" fill="url(#node2)" opacity="0.92"/><path d="M203.7 368L186.6 396 M436.3 368L453.4 396" fill="none" stroke="#7cbb9e" stroke-width="7" stroke-linecap="round" opacity=".7"/><path d="M203.7 368H436.3" stroke="url(#rung)" stroke-width="5" opacity=".8" stroke-linecap="round"/><circle cx="203.7" cy="368" r="8.0" fill="url(#node)" opacity="0.66"/><circle cx="436.3" cy="368" r="12.0" fill="url(#node2)" opacity="0.86"/><path d="M186.6 396L188.5 424 M453.4 396L451.5 424" fill="none" stroke="#7cbb9e" stroke-width="7" stroke-linecap="round" opacity=".7"/><path d="M186.6 396H453.4" stroke="url(#rung)" stroke-width="5" opacity=".8" stroke-linecap="round"/><circle cx="186.6" cy="396" r="9.4" fill="url(#node)" opacity="0.73"/><circle cx="453.4" cy="396" r="10.6" fill="url(#node2)" opacity="0.79"/><path d="M188.5 424L209.2 452 M451.5 424L430.8 452" fill="none" stroke="#7cbb9e" stroke-width="7" stroke-linecap="round" opacity=".7"/><path d="M188.5 424H451.5" stroke="url(#rung)" stroke-width="5" opacity=".8" stroke-linecap="round"/><circle cx="188.5" cy="424" r="10.9" fill="url(#node)" opacity="0.81"/><circle cx="451.5" cy="424" r="9.1" fill="url(#node2)" opacity="0.71"/><path d="M209.2 452L245.7 480 M430.8 452L394.3 480" fill="none" stroke="#7cbb9e" stroke-width="7" stroke-linecap="round" opacity=".7"/><path d="M209.2 452H430.8" stroke="url(#rung)" stroke-width="5" opacity=".8" stroke-linecap="round"/><circle cx="209.2" cy="452" r="12.3" fill="url(#node)" opacity="0.87"/><circle cx="430.8" cy="452" r="7.7" fill="url(#node2)" opacity="0.65"/><path d="M245.7 480L292.8 508 M394.3 480L347.2 508" fill="none" stroke="#7cbb9e" stroke-width="7" stroke-linecap="round" opacity=".7"/><path d="M245.7 480H394.3" stroke="url(#rung)" stroke-width="5" opacity=".8" stroke-linecap="round"/><circle cx="245.7" cy="480" r="13.3" fill="url(#node)" opacity="0.93"/><circle cx="394.3" cy="480" r="6.7" fill="url(#node2)" opacity="0.59"/><path d="M292.8 508L343.7 536 M347.2 508L296.3 536" fill="none" stroke="#7cbb9e" stroke-width="7" stroke-linecap="round" opacity=".7"/><path d="M292.8 508H347.2" stroke="url(#rung)" stroke-width="5" opacity=".8" stroke-linecap="round"/><circle cx="292.8" cy="508" r="13.9" fill="url(#node)" opacity="0.96"/><circle cx="347.2" cy="508" r="6.1" fill="url(#node2)" opacity="0.56"/><path d="M343.7 536L391.3 564 M296.3 536L248.7 564" fill="none" stroke="#7cbb9e" stroke-width="7" stroke-linecap="round" opacity=".7"/><path d="M343.7 536H296.3" stroke="url(#rung)" stroke-width="5" opacity=".8" stroke-linecap="round"/><circle cx="343.7" cy="536" r="13.9" fill="url(#node)" opacity="0.96"/><circle cx="296.3" cy="536" r="6.1" fill="url(#node2)" opacity="0.56"/><path d="M391.3 564L428.8 592 M248.7 564L211.2 592" fill="none" stroke="#7cbb9e" stroke-width="7" stroke-linecap="round" opacity=".7"/><path d="M391.3 564H248.7" stroke="url(#rung)" stroke-width="5" opacity=".8" stroke-linecap="round"/><circle cx="391.3" cy="564" r="13.4" fill="url(#node)" opacity="0.93"/><circle cx="248.7" cy="564" r="6.6" fill="url(#node2)" opacity="0.59"/><path d="M428.8 592L450.7 620 M211.2 592L189.3 620" fill="none" stroke="#7cbb9e" stroke-width="7" stroke-linecap="round" opacity=".7"/><path d="M428.8 592H211.2" stroke="url(#rung)" stroke-width="5" opacity=".8" stroke-linecap="round"/><circle cx="428.8" cy="592" r="12.4" fill="url(#node)" opacity="0.88"/><circle cx="211.2" cy="592" r="7.6" fill="url(#node2)" opacity="0.64"/><path d="M450.7 620L453.9 648 M189.3 620L186.1 648" fill="none" stroke="#7cbb9e" stroke-width="7" stroke-linecap="round" opacity=".7"/><path d="M450.7 620H189.3" stroke="url(#rung)" stroke-width="5" opacity=".8" stroke-linecap="round"/><circle cx="450.7" cy="620" r="11.0" fill="url(#node)" opacity="0.81"/><circle cx="189.3" cy="620" r="9.0" fill="url(#node2)" opacity="0.71"/><path d="M453.9 648L438.1 676 M186.1 648L201.9 676" fill="none" stroke="#7cbb9e" stroke-width="7" stroke-linecap="round" opacity=".7"/><path d="M453.9 648H186.1" stroke="url(#rung)" stroke-width="5" opacity=".8" stroke-linecap="round"/><circle cx="453.9" cy="648" r="9.5" fill="url(#node)" opacity="0.73"/><circle cx="186.1" cy="648" r="10.5" fill="url(#node2)" opacity="0.79"/><path d="M438.1 676L405.4 704 M201.9 676L234.6 704" fill="none" stroke="#7cbb9e" stroke-width="7" stroke-linecap="round" opacity=".7"/><path d="M438.1 676H201.9" stroke="url(#rung)" stroke-width="5" opacity=".8" stroke-linecap="round"/><circle cx="438.1" cy="676" r="8.1" fill="url(#node)" opacity="0.66"/><circle cx="201.9" cy="676" r="11.9" fill="url(#node2)" opacity="0.86"/><path d="M405.4 704L360.5 732 M234.6 704L279.5 732" fill="none" stroke="#7cbb9e" stroke-width="7" stroke-linecap="round" opacity=".7"/><path d="M405.4 704H234.6" stroke="url(#rung)" stroke-width="5" opacity=".8" stroke-linecap="round"/><circle cx="405.4" cy="704" r="6.9" fill="url(#node)" opacity="0.61"/><circle cx="234.6" cy="704" r="13.1" fill="url(#node2)" opacity="0.91"/><path d="M360.5 732H279.5" stroke="url(#rung)" stroke-width="5" opacity=".8" stroke-linecap="round"/><circle cx="360.5" cy="732" r="6.2" fill="url(#node)" opacity="0.57"/><circle cx="279.5" cy="732" r="13.8" fill="url(#node2)" opacity="0.95"/></g></svg>